HIERARCHY
ROOT hip
{
  OFFSET 0 0 0
  CHANNELS 6 Xposition Yposition Zposition Zrotation Yrotation Xrotation
  JOINT abdomen
  {
    OFFSET 0 20.6881 -0.73152
    CHANNELS 3 Zrotation Xrotation Yrotation
    JOINT chest
    {
      OFFSET 0 11.7043 -0.48768
      CHANNELS 3 Zrotation Xrotation Yrotation
      JOINT neck
      {
        OFFSET 0 22.1894 -2.19456
        CHANNELS 3 Zrotation Xrotation Yrotation
        JOINT head
        {
          OFFSET -0.24384 7.07133 1.2192
          CHANNELS 3 Zrotation Xrotation Yrotation
          JOINT leftEye
          {
            OFFSET 4.14528 8.04674 8.04672
            CHANNELS 3 Zrotation Xrotation Yrotation
            End Site
            {
              OFFSET 1 0 0
            }
          }
          JOINT rightEye
          {
            OFFSET -3.6576 8.04674 8.04672
            CHANNELS 3 Zrotation Xrotation Yrotation
            End Site
            {
              OFFSET 1 0 0
            }
          }
        }
      }
      JOINT rCollar
      {
        OFFSET -2.68224 19.2634 -4.8768
        CHANNELS 3 Zrotation Xrotation Yrotation
        JOINT rShldr
        {
          OFFSET -8.77824 -1.95073 1.46304
          CHANNELS 3 Zrotation Xrotation Yrotation
          JOINT rForeArm
          {
            OFFSET -28.1742 -1.7115 0.48768
            CHANNELS 3 Zrotation Xrotation Yrotation
            JOINT rHand
            {
              OFFSET -22.5879 0.773209 7.07136
              CHANNELS 3 Zrotation Xrotation Yrotation
              JOINT rThumb1
              {
                OFFSET -1.2192 -0.487915 3.41376
                CHANNELS 3 Zrotation Xrotation Yrotation
                JOINT rThumb2
                {
                  OFFSET -3.37035 -0.52449 3.41376
                  CHANNELS 3 Zrotation Xrotation Yrotation
                  End Site
                  {
                    OFFSET -1.78271 -1.18214 1.43049
                  }
                }
              }
              JOINT rIndex1
              {
                OFFSET -7.75947 0.938293 5.60832
                CHANNELS 3 Zrotation Xrotation Yrotation
                JOINT rIndex2
                {
                  OFFSET -2.54057 -0.884171 1.56538
                  CHANNELS 3 Zrotation Xrotation Yrotation
                  End Site
                  {
                    OFFSET -1.62519 -0.234802 1.16502
                  }
                }
              }
              JOINT rMid1
              {
                OFFSET -8.24714 1.18213 3.41376
                CHANNELS 3 Zrotation Xrotation Yrotation
                JOINT rMid2
                {
                  OFFSET -3.10165 -0.590103 1.0647
                  CHANNELS 3 Zrotation Xrotation Yrotation
                  End Site
                  {
                    OFFSET -2.48547 -0.328903 0.83742
                  }
                }
              }
              JOINT rRing1
              {
                OFFSET -8.82822 0.546677 1.51678
                CHANNELS 3 Zrotation Xrotation Yrotation
                JOINT rRing2
                {
                  OFFSET -2.60934 -0.819778 -0.0198488
                  CHANNELS 3 Zrotation Xrotation Yrotation
                  End Site
                  {
                    OFFSET -2.33842 -0.294052 0.168128
                  }
                }
              }
              JOINT rPinky1
              {
                OFFSET -8.27202 -0.0477905 -0.4584
                CHANNELS 3 Zrotation Xrotation Yrotation
                JOINT rPinky2
                {
                  OFFSET -1.82734 -0.647385 -0.700984
                  CHANNELS 3 Zrotation Xrotation Yrotation
                  End Site
                  {
                    OFFSET -1.69225 -0.51767 -0.607171
                  }
                }
              }
            }
          }
        }
      }
      JOINT lCollar
      {
        OFFSET 2.68224 19.2634 -4.8768
        CHANNELS 3 Zrotation Xrotation Yrotation
        JOINT lShldr
        {
          OFFSET 8.77824 -1.95073 1.46304
          CHANNELS 3 Zrotation Xrotation Yrotation
          JOINT lForeArm
          {
            OFFSET 28.1742 -1.7115 0.48768
            CHANNELS 3 Zrotation Xrotation Yrotation
            JOINT lHand
            {
              OFFSET 22.5879 0.773209 7.07136
              CHANNELS 3 Zrotation Xrotation Yrotation
              JOINT lThumb1
              {
                OFFSET 1.2192 -0.487915 3.41376
                CHANNELS 3 Zrotation Xrotation Yrotation
                JOINT lThumb2
                {
                  OFFSET 3.37035 -0.52449 3.41376
                  CHANNELS 3 Zrotation Xrotation Yrotation
                  End Site
                  {
                    OFFSET 1.78271 -1.18214 1.43049
                  }
                }
              }
              JOINT lIndex1
              {
                OFFSET 7.75947 0.938293 5.60832
                CHANNELS 3 Zrotation Xrotation Yrotation
                JOINT lIndex2
                {
                  OFFSET 2.54057 -0.884171 1.56538
                  CHANNELS 3 Zrotation Xrotation Yrotation
                  End Site
                  {
                    OFFSET 1.62519 -0.234802 1.16502
                  }
                }
              }
              JOINT lMid1
              {
                OFFSET 8.24714 1.18213 3.41376
                CHANNELS 3 Zrotation Xrotation Yrotation
                JOINT lMid2
                {
                  OFFSET 3.10165 -0.590103 1.0647
                  CHANNELS 3 Zrotation Xrotation Yrotation
                  End Site
                  {
                    OFFSET 2.48547 -0.328903 0.83742
                  }
                }
              }
              JOINT lRing1
              {
                OFFSET 8.82822 0.546677 1.51678
                CHANNELS 3 Zrotation Xrotation Yrotation
                JOINT lRing2
                {
                  OFFSET 2.60934 -0.819778 -0.0198488
                  CHANNELS 3 Zrotation Xrotation Yrotation
                  End Site
                  {
                    OFFSET 2.33842 -0.294052 0.168128
                  }
                }
              }
              JOINT lPinky1
              {
                OFFSET 8.27202 -0.0477905 -0.4584
                CHANNELS 3 Zrotation Xrotation Yrotation
                JOINT lPinky2
                {
                  OFFSET 1.82734 -0.647385 -0.700984
                  CHANNELS 3 Zrotation Xrotation Yrotation
                  End Site
                  {
                    OFFSET 1.69225 -0.51767 -0.607171
                  }
                }
              }
            }
          }
        }
      }
    }
  }
  JOINT rButtock
  {
    OFFSET -8.77824 4.35084 1.2192
    CHANNELS 3 Zrotation Xrotation Yrotation
    JOINT rThigh
    {
      OFFSET 0 -1.70687 -2.19456
      CHANNELS 3 Zrotation Xrotation Yrotation
      JOINT rShin
      {
        OFFSET 0 -36.8199 0.73152
        CHANNELS 3 Zrotation Xrotation Yrotation
        JOINT rFoot
        {
          OFFSET 0.73152 -45.1104 -5.12064
          CHANNELS 3 Zrotation Xrotation Yrotation
          End Site
          {
            OFFSET -1.1221 -3.69964 12.103
          }
        }
      }
    }
  }
  JOINT lButtock
  {
    OFFSET 8.77824 4.35084 1.2192
    CHANNELS 3 Zrotation Xrotation Yrotation
    JOINT lThigh
    {
      OFFSET 0 -1.70687 -2.19456
      CHANNELS 3 Zrotation Xrotation Yrotation
      JOINT lShin
      {
        OFFSET 0 -36.8199 0.73152
        CHANNELS 3 Zrotation Xrotation Yrotation
        JOINT lFoot
        {
          OFFSET -0.73152 -45.1104 -5.12064
          CHANNELS 3 Zrotation Xrotation Yrotation
          End Site
          {
            OFFSET 1.1221 -3.69964 12.103
          }
        }
      }
    }
  }
}
MOTION
Frames:	4
Frame Time:	0.00833333
-183.015 84.0179 -8.41555 0.0 0.0 0.0 -1.65552 -0.0035757 -0.0452725 -0.457101 0.00015492 -0.0791641 -3.21319e-14 -7.95139e-16 -1.73937e-16 -9.63329e-14 -6.36111e-15 -5.71506e-16 -0.0 0.0 0.0 -0.0 0.0 0.0 -1.61042e-14 -1.31229e-16 9.93923e-17 -3.34039e-13 -2.7395e-15 -2.38542e-15 -5.78608e-12 1.63779e-12 9.54166e-15 -6.61678e-11 -2.22771e-12 -5.24792e-13 -1.5609e-10 -1.28273e-12 -1.06867e-12 -2.69564e-10 -2.22003e-12 -1.84631e-12 -1.56085e-10 -1.27978e-12 -1.08139e-12 7.73091 5.47488 0.417314 -1.5609e-10 -1.28256e-12 -1.06867e-12 2.90554 0.965183 0.102902 -1.56085e-10 -1.28256e-12 -1.07105e-12 10.2786 0.731801 0.0259123 -1.561e-10 -1.28057e-12 -1.06231e-12 2.22167 -0.733487 -0.20892 -1.61994e-14 -1.32394e-16 -2.98177e-16 -3.37649e-13 -2.34814e-15 -3.77691e-15 -5.77912e-12 -1.82305e-12 1.27222e-14 -6.61773e-11 1.24303e-12 -4.99347e-13 -1.56088e-10 -1.26494e-12 -1.05276e-12 -2.69546e-10 -2.18504e-12 -1.81371e-12 -1.56094e-10 -1.26228e-12 -1.04322e-12 -7.73091 5.47488 -0.417314 -1.56087e-10 -1.26457e-12 -1.05594e-12 -2.90554 0.965183 -0.102902 -1.5609e-10 -1.26487e-12 -1.05753e-12 -10.2786 0.731801 -0.0259123 -1.56087e-10 -1.26268e-12 -1.06549e-12 -2.22167 -0.733487 0.20892 -2.03217e-16 0.0 -3.88251e-19 -0.803339 -1.9234 -0.00371862 -0.00881928 -2.07862 -0.0725785 -0.45214 3.99778 0.131447 2.03217e-16 0.0 3.88251e-19 -1.71751 -6.77989 0.164465 -0.00322901 6.71847 -0.0840794 0.48203 0.0572772 -0.0558877
-177.644 82.9535 -11.96 -38.7397 80.3332 -36.5286 0.278884 5.70914 -0.805047 0.00691398 -0.121943 -0.141736 -0.293945 3.65238 0.886839 -1.11102 -11.2724 1.47624 -0.0 0.0 0.0 -0.0 0.0 0.0 -1.35145e-14 -1.75407e-13 5.43688e-14 18.9045 12.4246 -0.921684 -7.37759 -4.36523 10.2124 3.10831e-05 0.124721 0.0175283 2.55497e-11 1.40388e-10 -8.30929e-11 4.4707e-11 2.43047e-10 -1.43965e-10 2.55523e-11 1.40391e-10 -8.31029e-11 7.73091 5.47488 0.417314 2.55474e-11 1.40387e-10 -8.30898e-11 2.90554 0.965183 0.102902 2.55541e-11 1.4039e-10 -8.30943e-11 10.2786 0.731801 0.0259123 2.55407e-11 1.40393e-10 -8.30863e-11 2.22167 -0.733487 -0.20892 -1.35456e-14 -1.75411e-13 5.40131e-14 -20.904 9.50574 1.67113 8.63604 -5.52103 -11.311 -0.00186463 -0.957939 0.134562 2.74582e-11 1.108e-11 2.20943e-10 4.68008e-11 1.9438e-11 3.83495e-10 2.74536e-11 1.10823e-11 2.20953e-10 -7.73091 5.47488 -0.417314 2.74584e-11 1.10815e-11 2.20942e-10 -2.90554 0.965183 -0.102902 2.7454e-11 1.10813e-11 2.20939e-10 -10.2786 0.731801 -0.0259123 2.74595e-11 1.10837e-11 2.20932e-10 -2.22167 -0.733487 0.20892 -2.03217e-16 0.0 -3.88251e-19 1.6183 -0.688065 2.56632 0.0134959 1.87479 0.0458038 -0.76629 -2.41876 -2.56276 2.03217e-16 0.0 3.88251e-19 1.39849 -12.5144 0.0500652 0.0425969 15.3872 -0.171244 -0.155574 -4.32367 -3.549
-177.643 82.9536 -11.9616 -38.7148 80.3391 -36.5117 2.49086 11.7457 -1.63633 0.498898 -0.250993 -0.208505 -0.73184 7.50813 1.83776 -1.60114 -23.1605 3.24351 -0.0 0.0 0.0 -0.0 0.0 0.0 -1.12094e-14 -3.95033e-13 1.21759e-13 39.3619 25.5527 -2.05058 -13.5125 -8.52218 21.199 -1.96543e-05 0.258435 0.0363207 2.17646e-10 3.09266e-10 -1.85919e-10 3.77151e-10 5.354e-10 -3.22064e-10 2.17646e-10 3.09269e-10 -1.85925e-10 7.73091 5.47488 0.417314 2.17641e-10 3.09263e-10 -1.85912e-10 2.90554 0.965183 0.102902 2.1765e-10 3.0927e-10 -1.85919e-10 10.2786 0.731801 0.0259123 2.17638e-10 3.09273e-10 -1.85912e-10 2.22167 -0.733487 -0.20892 -1.11701e-14 -3.95039e-13 1.21448e-13 -43.6398 19.5224 3.59664 15.425 -10.6356 -23.5871 0.00105804 -1.96919 0.27674 2.1356e-10 2.91414e-11 4.8865e-10 3.673e-10 5.09966e-11 8.4803e-10 2.13557e-10 2.91434e-11 4.8866e-10 -7.73091 5.47488 -0.417314 2.1356e-10 2.91442e-11 4.88651e-10 -2.90554 0.965183 -0.102902 2.13554e-10 2.91442e-11 4.88648e-10 -10.2786 0.731801 -0.0259123 2.13561e-10 2.91467e-11 4.88642e-10 -2.22167 -0.733487 0.20892 -2.03217e-16 0.0 -3.88251e-19 4.05797 0.611297 5.28264 0.0192902 6.0606 0.171917 -1.76046 -9.1716 -5.47392 2.03217e-16 0.0 3.88251e-19 4.66653 -18.5782 -0.0760924 0.122836 24.5535 -0.276348 -1.41591 -8.90069 -7.30989
-177.635 82.9643 -11.961 -38.7276 80.348 -36.5365 4.62024 17.1219 -2.41993 0.934144 -0.366136 -0.266884 -1.22625 10.9465 2.70435 -1.29355 -33.718 5.2239 -0.0 0.0 0.0 -0.0 0.0 0.0 -8.33509e-15 -5.25959e-13 1.62908e-13 58.1723 37.2299 -3.39214 -17.6356 -11.4319 31.2342 -0.000135687 0.374164 0.0525858 3.88828e-10 4.2373e-10 -2.47141e-10 6.73249e-10 7.33581e-10 -4.28201e-10 3.88827e-10 4.23733e-10 -2.47146e-10 7.73091 5.47488 0.417314 3.88822e-10 4.23726e-10 -2.47132e-10 2.90554 0.965183 0.102902 3.88833e-10 4.23736e-10 -2.47141e-10 10.2786 0.731801 0.0259123 3.88822e-10 4.2374e-10 -2.47134e-10 2.22167 -0.733487 -0.20892 -8.23791e-15 -5.25967e-13 1.62636e-13 -64.5664 28.4133 5.62379 19.6353 -13.9746 -34.9502 0.00791902 -2.87375 0.404136 3.94551e-10 3.577e-11 6.64935e-10 6.79495e-10 6.26841e-11 1.15411e-09 3.94548e-10 3.57715e-11 6.64944e-10 -7.73091 5.47488 -0.417314 3.9455e-10 3.57735e-11 6.64937e-10 -2.90554 0.965183 -0.102902 3.94542e-10 3.57736e-11 6.64933e-10 -10.2786 0.731801 -0.0259123 3.94552e-10 3.57764e-11 6.64928e-10 -2.22167 -0.733487 0.20892 -2.03217e-16 0.0 -3.88251e-19 6.12999 1.76444 7.70951 0.00867139 9.78151 0.286565 -3.24733 -15.1092 -8.23005 2.03217e-16 0.0 3.88251e-19 7.5567 -23.9831 -0.197011 0.22858 32.7243 -0.390253 -3.05839 -12.8868 -10.7795
